<?xml version="1.0" encoding="UTF-8"?><svg id="a" xmlns="http://www.w3.org/2000/svg" viewBox="0 0 13.34 9.33"><defs><style>.b{fill:#fbb803;}</style></defs><path class="b" d="M11.33,1.33c0-.73-.6-1.33-1.33-1.33h-1.33c-.37,0-.67,.3-.67,.67s.3,.67,.67,.67h1.33v1.77l-2.32,2.9h-2.35V3.33c0-.37-.3-.67-.67-.67H2.67C1.19,2.67,0,3.86,0,5.33H0v1.34C0,7.03,.3,7.33,.67,7.33h.67c0,1.11,.89,2,2,2s2-.89,2-2h2.35c.41,0,.79-.19,1.04-.5l2.32-2.9c.19-.24,.29-.53,.29-.83V1.33h0ZM3.33,8c-.37,0-.66-.3-.67-.67h1.33c0,.37-.3,.67-.67,.67Z"/><path class="b" d="M2.67,.67h2c.37,0,.67,.3,.67,.67s-.3,.67-.67,.67H2.67c-.37,0-.67-.3-.67-.67,0-.37,.3-.67,.67-.67ZM11.34,5.33c-1.11,0-2,.89-2,2s.89,2,2,2,2-.89,2-2-.89-2-2-2Zm0,2.67c-.37,0-.67-.3-.67-.67,0-.37,.3-.67,.67-.67s.67,.3,.67,.67-.3,.67-.67,.67Z"/></svg>