<?xml version="1.0" encoding="UTF-8"?><svg id="a" xmlns="http://www.w3.org/2000/svg" viewBox="0 0 13.65 11.67"><defs><style>.b{fill:#fbb803;}</style></defs><path class="b" d="M11.67,3.79s-1.66-.96-3.15,1.68c-1.49,2.64-1.59,3.47-4.83,4.29-2.26,.57-3.15,.9-3.64,1.57-.12,.17,.04,.39,.24,.33,.68-.22,1.98-.5,3.67-.24,1.7,.26,6.3-.36,8.04-3.19,1.74-2.83,.71-4.14-.32-4.44Z"/><path class="b" d="M3.82,10.58c-1.52-.14-2.7,.13-3.41,.37-.14,.12-.26,.24-.37,.38-.12,.17,.04,.39,.24,.33,.68-.22,1.98-.5,3.67-.24,1.7,.26,6.3-.36,8.04-3.19,1.11-1.81,1.09-3,.66-3.7-.19,.71-.52,1.52-.99,2.4-1.57,2.92-6.13,3.81-7.84,3.65Z"/><path class="b" d="M13.59,0s-1.39,.01-1.65,1.11c-.26,1.1-.39,1.96-.83,2.11s-1.07,.47-1.04,.58c.02,.1,1.52-.12,2.54,1.01,.79,.88,0-.83-.37-1.3-.28-.35-.32-.76-.09-1.61,.23-.85,.33-1.22,1.37-1.42,0,0,.22,0,.06-.47Z"/><path class="b" d="M10.13,4.4s-.71,.33-1.21,1.4c-.5,1.06-1.12,1.79-1.08,1.83s.32,.39,1.19-1.13c.87-1.53,1.83-2.06,1.1-2.1Z"/><path class="b" d="M7.39,8.05c-.11,.11-.14,.26-.07,.32s.21,.03,.32-.08c.11-.11,.14-.26,.07-.32-.07-.07-.21-.03-.32,.08Z"/></svg>