<?xml version="1.0" encoding="UTF-8"?><svg id="a" xmlns="http://www.w3.org/2000/svg" viewBox="0 0 4.7 5.53"><defs><style>.b{fill:#fbb803;}</style></defs><path class="b" d="M4.67,5.1l-1.58-3.05V.77c.13-.03,.22-.15,.22-.28v-.19c0-.16-.13-.29-.29-.29H1.68c-.16,0-.29,.13-.29,.29v.19c0,.14,.09,.25,.22,.28v1.28l-.31,.6h.7v.22h-.81l-.24,.47H1.99v.22H.83l-.24,.47H1.99v.22H.47l-.24,.47H1.99v.22H.11l-.08,.15c-.05,.09-.04,.2,.01,.28,.05,.09,.15,.14,.25,.14H4.41c.1,0,.2-.05,.25-.14,.05-.09,.06-.19,.01-.28Z"/></svg>