<?xml version="1.0" encoding="UTF-8"?><svg id="a" xmlns="http://www.w3.org/2000/svg" viewBox="0 0 12.73 14.15"><defs><style>.b{fill:#fbb803;}</style></defs><path class="b" d="M12.73,1.42v1.34c0,2.17-1.76,3.93-3.93,3.93h-.55l.61-.63c1.79-.03,3.24-1.5,3.24-3.3V1.73h-2.36l.08-.63h2.59c.17,0,.31,.14,.31,.31Z"/><path class="b" d="M8.41,10.47v.69H4.32v-.69c0-.06,.03-.11,.08-.14l.31-.17c.54-.3,.87-.87,.87-1.48v-.73h1.57v.73c0,.62,.33,1.18,.87,1.48l.31,.17s.08,.08,.08,.14Z"/><path class="b" d="M8.41,10.47v.69h-.39v-.69c0-.06-.03-.11-.08-.14l-.31-.17c-.54-.3-.87-.87-.87-1.48v-.73h.39v.73c0,.62,.33,1.18,.87,1.48l.31,.17s.08,.08,.08,.14Z"/><path class="b" d="M7.62,7.33v.46c0,.22-.18,.39-.39,.39h-1.73c-.22,0-.39-.18-.39-.39v-.46h2.51Z"/><rect class="b" x="5.58" y="8.18" width="1.57" height=".23"/><path class="b" d="M9.04,11.01v2.75H3.69v-2.75c0-.09,.07-.16,.16-.16h5.03c.09,0,.16,.07,.16,.16Z"/><path class="b" d="M9.04,11.01v2.75h-.31v-2.75c0-.09-.07-.16-.16-.16h.31c.09,0,.16,.07,.16,.16Z"/><rect class="b" x="3.22" y="13.52" width="6.29" height=".63" rx=".16" ry=".16"/><path class="b" d="M9.51,13.68v.31c0,.09-.07,.16-.16,.16h-.31c.09,0,.16-.07,.16-.16v-.31c0-.09-.07-.16-.16-.16h.31c.09,0,.16,.07,.16,.16Z"/><rect class="b" x="4.48" y="11.48" width="3.77" height="1.42" rx=".16" ry=".16"/><path class="b" d="M7.62,7.33v.46c0,.22-.18,.39-.39,.39h-.31c.22,0,.39-.18,.39-.39v-.46h.31Z"/><path class="b" d="M4.71,6.68h-.79C1.76,6.68,0,4.92,0,2.75V1.42c0-.17,.14-.31,.31-.31H2.91v.63H.63v1.02c0,1.8,1.45,3.27,3.24,3.3l.85,.63Z"/><path class="b" d="M10.22,.47v.31c0,3.82-1.72,6.92-3.85,6.92S2.51,4.61,2.51,.79V.47h7.7Z"/><path class="b" d="M2.55,1.73h-.31c-.02-.21-.03-.42-.03-.63h.31c0,.21,.02,.42,.03,.63Z"/><path class="b" d="M4.35,6.68h-.31c-.18-.19-.34-.41-.5-.65,.11,.01,.22,.02,.33,.02,.15,.23,.31,.44,.48,.63Z"/><path class="b" d="M7.62,7.33v.16c-.39,.24-.82,.38-1.26,.38s-.86-.13-1.26-.38v-.16c.39,.24,.82,.38,1.26,.38s.86-.13,1.26-.38Z"/><path class="b" d="M10.22,.47v.31c0,3.7-1.62,6.72-3.65,6.91,1.98-.19,2.71-3.21,2.71-6.91V.47h.94Z"/><path class="b" d="M10.61,.39c0,.11-.04,.21-.11,.28-.07,.07-.17,.11-.28,.11H2.51c-.22,0-.39-.18-.39-.39,0-.11,.04-.21,.11-.28,.07-.07,.17-.11,.28-.11h7.7c.22,0,.39,.18,.39,.39Z"/><path class="b" d="M10.22,.79c0,.11,0,.21,0,.31H2.52c0-.1,0-.21,0-.31h7.7Z"/><path class="b" d="M10.61,.39c0,.11-.04,.21-.11,.28-.07,.07-.17,.11-.28,.11h-.86c.11,0,.21-.04,.28-.11,.07-.07,.11-.17,.11-.28,0-.22-.18-.39-.39-.39h.86c.22,0,.39,.18,.39,.39Z"/><path class="b" d="M8.25,11.64v1.1c0,.09-.07,.16-.16,.16h-3.12c.63-.01,2.73-.15,2.73-1.42h.39c.09,0,.16,.07,.16,.16Z"/><path class="b" d="M4.64,12.34v-.64s.03-.06,.06-.06h1.41s-1.12,.12-1.47,.71Z"/><path class="b" d="M3.87,11.71v-.64s.03-.06,.06-.06h1.41s-1.12,.12-1.47,.71Z"/><path class="b" d="M6.36,7.47c-.85,0-3.22-1.8-3.51-6.05h.93c.23,5.2,2.57,6.05,2.57,6.05Z"/><path class="b" d="M4.71,10.54s1.1-.71,1.1-1.73v1.73h-1.1Z"/><path class="b" d="M2.67,.16v.24h-.39c0-.13,.11-.24,.24-.24h.16Z"/><path class="b" d="M10.45,1.1c0,.21-.02,.42-.03,.63h-.67l.08-.63h.62Z"/><path class="b" d="M9.11,6.04c-.15,.24-.32,.45-.49,.64h-.36l.28-.29,.33-.34c.08,0,.16,0,.25-.01Z"/></svg>